<?xml version="1.0" encoding="utf-8"?>
<svg width="89px" height="89px" viewBox="0 0 89 89" version="1.1" xmlns:xlink="http://www.w3.org/1999/xlink" xmlns="http://www.w3.org/2000/svg">
  <desc>Created with Lunacy</desc>
  <defs>
    <linearGradient x1="0" y1="1" x2="0.5" y2="0" id="gradient_1">
      <stop offset="0" stop-color="#FFC593" />
      <stop offset="0.5194521" stop-color="#BC7198" />
      <stop offset="1" stop-color="#5A77FF" />
    </linearGradient>
    <filter filterUnits="userSpaceOnUse" color-interpolation-filters="sRGB" id="filter_1">
      <feFlood flood-opacity="0" result="BackgroundImageFix" />
      <feBlend mode="normal" in="SourceGraphic" in2="BackgroundImageFix" result="shape" />
      <feColorMatrix in="SourceAlpha" type="matrix" values="0 0 0 0 0 0 0 0 0 0 0 0 0 0 0 0 0 0 127 0" result="hardAlpha" />
      <feOffset dx="0" dy="0" />
      <feGaussianBlur stdDeviation="17.5" />
      <feComposite in2="hardAlpha" operator="arithmetic" k2="-1" k3="1" />
      <feColorMatrix type="matrix" values="0 0 0 0 0 0 0 0 0 0 0 0 0 0 0 0 0 0 0.047058824 0" />
      <feBlend mode="normal" in2="shape" result="effect0_innerShadow" />
    </filter>
  </defs>
  <g id="Group-9" transform="translate(0.5 0.5)">
    <path d="M44 88C68.3005 88 88 68.3005 88 44C88 19.6995 68.3005 0 44 0C19.6995 0 0 19.6995 0 44C0 68.3005 19.6995 88 44 88Z" id="Oval" fill="#000000" fill-rule="evenodd" stroke="none" filter="url(#filter_1)" />
    <g id="Group-8" transform="translate(12 41)">
      <path d="M1.53272 5.83784L1.53272 4.13514L2.5411 4.13514C2.85302 4.13514 3.13805 4.08514 3.39619 3.98514C3.65434 3.88514 3.87484 3.74595 4.05769 3.56757C4.24054 3.38919 4.38305 3.17973 4.48524 2.93919C4.58742 2.69865 4.63851 2.43514 4.63851 2.14865C4.63851 1.86757 4.58742 1.60541 4.48524 1.36216C4.38305 1.11892 4.24054 0.908108 4.05769 0.72973C3.87484 0.551351 3.65434 0.412162 3.39619 0.312162C3.13805 0.212162 2.85302 0.162162 2.5411 0.162162L2.5411 0.162162L0 0.162162L0 5.83784L1.53272 5.83784ZM2.46043 2.75676L1.53272 2.75676L1.53272 1.54054L2.46043 1.54054C2.64328 1.54054 2.79655 1.60135 2.92024 1.72297C3.04394 1.84459 3.10578 1.98649 3.10578 2.14865C3.10578 2.31081 3.04394 2.4527 2.92024 2.57432C2.79655 2.69595 2.64328 2.75676 2.46043 2.75676L2.46043 2.75676ZM7.13927 5.83784L7.13927 3.64865L9.19635 3.64865L9.19635 5.83784L10.7291 5.83784L10.7291 0.162162L9.19635 0.162162L9.19635 2.27027L7.13927 2.27027L7.13927 0.162162L5.60654 0.162162L5.60654 5.83784L7.13927 5.83784ZM14.8432 6C15.2842 6 15.697 5.92027 16.0815 5.76081C16.466 5.60135 16.7995 5.38378 17.0818 5.10811C17.3642 4.83243 17.586 4.51351 17.7473 4.15135C17.9087 3.78919 17.9893 3.40541 17.9893 3C17.9893 2.59459 17.9087 2.21081 17.7473 1.84865C17.586 1.48649 17.3642 1.16757 17.0818 0.891892C16.7995 0.616216 16.466 0.398649 16.0815 0.239189C15.697 0.0797297 15.2842 0 14.8432 0C14.3969 0 13.9827 0.0797297 13.6009 0.239189C13.2191 0.398649 12.887 0.616216 12.6046 0.891892C12.3223 1.16757 12.1005 1.48649 11.9391 1.84865C11.7778 2.21081 11.6971 2.59459 11.6971 3C11.6971 3.40541 11.7778 3.78919 11.9391 4.15135C12.1005 4.51351 12.3223 4.83243 12.6046 5.10811C12.887 5.38378 13.2191 5.60135 13.6009 5.76081C13.9827 5.92027 14.3969 6 14.8432 6ZM14.8432 4.62162C14.6227 4.62162 14.4157 4.58108 14.2221 4.5C14.0285 4.41892 13.8617 4.30541 13.7219 4.15946C13.5821 4.01351 13.4718 3.84189 13.3912 3.64459C13.3105 3.4473 13.2702 3.23243 13.2702 3C13.2702 2.76757 13.3105 2.5527 13.3912 2.35541C13.4718 2.15811 13.5821 1.98649 13.7219 1.84054C13.8617 1.69459 14.0285 1.58108 14.2221 1.5C14.4157 1.41892 14.6227 1.37838 14.8432 1.37838C15.0637 1.37838 15.2694 1.41892 15.4604 1.5C15.6513 1.58108 15.818 1.69459 15.9605 1.84054C16.103 1.98649 16.2146 2.15811 16.2953 2.35541C16.376 2.5527 16.4163 2.76757 16.4163 3C16.4163 3.23243 16.376 3.4473 16.2953 3.64459C16.2146 3.84189 16.103 4.01351 15.9605 4.15946C15.818 4.30541 15.6513 4.41892 15.4604 4.5C15.2694 4.58108 15.0637 4.62162 14.8432 4.62162ZM21.5791 5.83784L21.5791 1.54054L23.1522 1.54054L23.1522 0.162162L18.4734 0.162162L18.4734 1.54054L20.0464 1.54054L20.0464 5.83784L21.5791 5.83784ZM26.7823 6C27.2233 6 27.6361 5.92027 28.0206 5.76081C28.4051 5.60135 28.7386 5.38378 29.0209 5.10811C29.3033 4.83243 29.5251 4.51351 29.6865 4.15135C29.8478 3.78919 29.9285 3.40541 29.9285 3C29.9285 2.59459 29.8478 2.21081 29.6865 1.84865C29.5251 1.48649 29.3033 1.16757 29.0209 0.891892C28.7386 0.616216 28.4051 0.398649 28.0206 0.239189C27.6361 0.0797297 27.2233 0 26.7823 0C26.336 0 25.9219 0.0797297 25.54 0.239189C25.1582 0.398649 24.8261 0.616216 24.5438 0.891892C24.2614 1.16757 24.0396 1.48649 23.8782 1.84865C23.7169 2.21081 23.6362 2.59459 23.6362 3C23.6362 3.40541 23.7169 3.78919 23.8782 4.15135C24.0396 4.51351 24.2614 4.83243 24.5438 5.10811C24.8261 5.38378 25.1582 5.60135 25.54 5.76081C25.9219 5.92027 26.336 6 26.7823 6ZM26.7823 4.62162C26.5618 4.62162 26.3548 4.58108 26.1612 4.5C25.9676 4.41892 25.8009 4.30541 25.661 4.15946C25.5212 4.01351 25.411 3.84189 25.3303 3.64459C25.2496 3.4473 25.2093 3.23243 25.2093 3C25.2093 2.76757 25.2496 2.5527 25.3303 2.35541C25.411 2.15811 25.5212 1.98649 25.661 1.84054C25.8009 1.69459 25.9676 1.58108 26.1612 1.5C26.3548 1.41892 26.5618 1.37838 26.7823 1.37838C27.0028 1.37838 27.2085 1.41892 27.3995 1.5C27.5904 1.58108 27.7571 1.69459 27.8996 1.84054C28.0421 1.98649 28.1537 2.15811 28.2344 2.35541C28.3151 2.5527 28.3554 2.76757 28.3554 3C28.3554 3.23243 28.3151 3.4473 28.2344 3.64459C28.1537 3.84189 28.0421 4.01351 27.8996 4.15946C27.7571 4.30541 27.5904 4.41892 27.3995 4.5C27.2085 4.58108 27.0028 4.62162 26.7823 4.62162ZM32.6712 6C33.0262 6 33.3435 5.95 33.6231 5.85C33.9028 5.75 34.1394 5.61486 34.333 5.44459C34.5266 5.27432 34.6745 5.07703 34.7767 4.8527C34.8789 4.62838 34.93 4.38919 34.93 4.13514C34.93 3.80541 34.8654 3.53514 34.7364 3.32432C34.6073 3.11351 34.446 2.94324 34.2524 2.81351C34.0588 2.68378 33.8477 2.58108 33.6191 2.50541C33.3905 2.42973 33.1795 2.35946 32.9858 2.29459C32.7922 2.22973 32.6309 2.16081 32.5018 2.08784C32.3728 2.01486 32.3082 1.91351 32.3082 1.78378C32.3082 1.65946 32.3633 1.5473 32.4736 1.4473C32.5838 1.3473 32.7304 1.2973 32.9132 1.2973C33.0531 1.2973 33.1795 1.32027 33.2924 1.36622C33.4053 1.41216 33.5021 1.46486 33.5828 1.52432C33.6796 1.58919 33.7657 1.66216 33.8409 1.74324L33.8409 1.74324L34.7283 0.810811C34.5992 0.659459 34.4406 0.524324 34.2524 0.405405C34.091 0.302703 33.8867 0.209459 33.6393 0.125676C33.3919 0.0418919 33.0961 0 32.7519 0C32.4292 0 32.1361 0.0486486 31.8726 0.145946C31.6091 0.243243 31.3846 0.372973 31.199 0.535135C31.0135 0.697297 30.8696 0.883784 30.7674 1.09459C30.6652 1.30541 30.6142 1.52162 30.6142 1.74324C30.6142 2.07297 30.6787 2.34324 30.8078 2.55405C30.9368 2.76486 31.0982 2.93514 31.2918 3.06486C31.4854 3.19459 31.6965 3.2973 31.925 3.37297C32.1536 3.44865 32.3647 3.51892 32.5583 3.58378C32.7519 3.64865 32.9132 3.71757 33.0423 3.79054C33.1714 3.86351 33.2359 3.96486 33.2359 4.09459C33.2359 4.25676 33.1714 4.39865 33.0423 4.52027C32.9132 4.64189 32.7358 4.7027 32.5099 4.7027C32.327 4.7027 32.1617 4.67162 32.0138 4.60946C31.8659 4.5473 31.7382 4.47838 31.6306 4.4027C31.5069 4.31081 31.3967 4.20811 31.2998 4.09459L31.2998 4.09459L30.4125 5.02703C30.5738 5.21081 30.7647 5.37297 30.9852 5.51351C31.1735 5.63784 31.4074 5.75 31.6871 5.85C31.9667 5.95 32.2948 6 32.6712 6ZM37.3501 5.83784L37.3501 2.67568L39.7782 5.83784L41.1012 5.83784L41.1012 0.162162L39.5685 0.162162L39.5685 3.32432L37.1484 0.162162L35.8174 0.162162L35.8174 5.83784L37.3501 5.83784ZM43.4003 5.83784L43.8037 4.62162L45.6591 4.62162L46.0624 5.83784L47.7161 5.83784L45.5784 0.162162L43.8843 0.162162L41.7466 5.83784L43.4003 5.83784ZM45.2557 3.40541L44.207 3.40541L44.7314 1.74324L45.2557 3.40541ZM49.8942 5.83784L49.8942 4.13514L50.9026 4.13514C51.2145 4.13514 51.4995 4.08514 51.7577 3.98514C52.0158 3.88514 52.2363 3.74595 52.4192 3.56757C52.602 3.38919 52.7445 3.17973 52.8467 2.93919C52.9489 2.69865 53 2.43514 53 2.14865C53 1.86757 52.9489 1.60541 52.8467 1.36216C52.7445 1.11892 52.602 0.908108 52.4192 0.72973C52.2363 0.551351 52.0158 0.412162 51.7577 0.312162C51.4995 0.212162 51.2145 0.162162 50.9026 0.162162L50.9026 0.162162L48.3615 0.162162L48.3615 5.83784L49.8942 5.83784ZM50.8219 2.75676L49.8942 2.75676L49.8942 1.54054L50.8219 1.54054C51.0048 1.54054 51.158 1.60135 51.2817 1.72297C51.4054 1.84459 51.4673 1.98649 51.4673 2.14865C51.4673 2.31081 51.4054 2.4527 51.2817 2.57432C51.158 2.69595 51.0048 2.75676 50.8219 2.75676L50.8219 2.75676Z" transform="translate(11 0)" id="PHOTOSNAP" fill="#FFFFFF" stroke="none" />
      <path d="M0 6L4 0L8 6L0 6Z" id="Path-2" fill="url(#gradient_1)" fill-rule="evenodd" stroke="none" />
    </g>
  </g>
</svg>