<?xml version="1.0" encoding="utf-8"?>
<svg width="88px" height="88px" viewBox="0 0 88 88" version="1.1" xmlns:xlink="http://www.w3.org/1999/xlink" xmlns="http://www.w3.org/2000/svg">
  <desc>Created with Lunacy</desc>
  <defs>
    <filter filterUnits="userSpaceOnUse" color-interpolation-filters="sRGB" id="filter_1">
      <feFlood flood-opacity="0" result="BackgroundImageFix" />
      <feBlend mode="normal" in="SourceGraphic" in2="BackgroundImageFix" result="shape" />
      <feColorMatrix in="SourceAlpha" type="matrix" values="0 0 0 0 0 0 0 0 0 0 0 0 0 0 0 0 0 0 127 0" result="hardAlpha" />
      <feOffset dx="0" dy="0" />
      <feGaussianBlur stdDeviation="17.5" />
      <feComposite in2="hardAlpha" operator="arithmetic" k2="-1" k3="1" />
      <feColorMatrix type="matrix" values="0 0 0 0 0 0 0 0 0 0 0 0 0 0 0 0 0 0 0.047058824 0" />
      <feBlend mode="normal" in2="shape" result="effect0_innerShadow" />
    </filter>
  </defs>
  <g id="Group-9">
    <path d="M44 88C68.3005 88 88 68.3005 88 44C88 19.6995 68.3005 0 44 0C19.6995 0 0 19.6995 0 44C0 68.3005 19.6995 88 44 88Z" id="Oval" fill="#F3603C" fill-rule="evenodd" stroke="none" filter="url(#filter_1)" />
    <g id="Group-12" transform="translate(13 39)">
      <g id="Group-6">
        <g id="manage-2" transform="translate(10.584 0)">
          <path d="M6.22196 7.00368L6.22196 3.56388C6.22196 2.90671 6.37572 2.38856 6.68323 2.00942C6.99075 1.63029 7.37572 1.44072 7.83814 1.44072C8.7445 1.44072 9.19768 2.09789 9.19768 3.41222L9.19768 3.41222L9.19768 7.00368L10.7861 7.00368L10.7861 3.01241C10.7861 2.00597 10.5757 1.25345 10.1549 0.754825C9.7341 0.256204 9.13294 0.00689338 8.35144 0.00689338C7.83814 0.00689338 7.36878 0.10455 6.94335 0.299862C6.51791 0.495175 6.15953 0.778952 5.8682 1.15119L5.8682 1.15119L5.84046 1.15119C5.4289 0.388327 4.73988 0.00689338 3.77341 0.00689338C3.36647 0.00689338 2.97456 0.0976563 2.59769 0.279182C2.22081 0.460708 1.89133 0.721507 1.60925 1.06158L1.60925 1.06158L1.58844 1.06158L1.58844 0.110294L0 0.110294L0 6.99678L1.58844 6.99678L1.58844 3.56388C1.58844 2.90671 1.74451 2.38856 2.05665 2.00942C2.36878 1.63029 2.76763 1.44072 3.25318 1.44072C4.17341 1.44072 4.63352 2.09789 4.63352 3.41222L4.63352 3.41222L4.63352 7.00368L6.22196 7.00368ZM15.0844 7.10708C16.0277 7.10708 16.763 6.76241 17.2902 6.07307L17.2902 6.07307L17.311 6.07307L17.311 6.99678L18.83 6.99678L18.83 0.110294L17.2416 0.110294L17.2416 0.9375L17.2139 0.9375C16.6867 0.317096 15.9722 0.00689338 15.0705 0.00689338C14.5988 0.00689338 14.1572 0.0965074 13.7457 0.275735C13.3341 0.454963 12.9803 0.700827 12.6844 1.01333C12.3884 1.32583 12.1549 1.70496 11.9838 2.15074C11.8127 2.59651 11.7272 3.07445 11.7272 3.58456C11.7272 4.10846 11.8127 4.59099 11.9838 5.03217C12.1549 5.47335 12.3884 5.84559 12.6844 6.1489C12.9803 6.45221 13.3352 6.68773 13.7491 6.85547C14.163 7.02321 14.6081 7.10708 15.0844 7.10708ZM15.3341 5.67325C14.7468 5.67325 14.2682 5.47909 13.8983 5.09076C13.5283 4.70244 13.3433 4.20267 13.3433 3.59145C13.3433 2.94347 13.5341 2.42302 13.9156 2.0301C14.2971 1.63718 14.7722 1.44072 15.341 1.44072C15.9052 1.44072 16.3734 1.64637 16.7456 2.05767C17.1179 2.46898 17.304 2.98024 17.304 3.59145C17.304 4.20267 17.1133 4.70244 16.7318 5.09076C16.3503 5.47909 15.8844 5.67325 15.3341 5.67325ZM26.7214 7.00368L26.7214 2.94347C26.7214 1.94623 26.4959 1.20749 26.0451 0.727252C25.5942 0.247013 24.9711 0.00689338 24.1757 0.00689338C23.7225 0.00689338 23.2948 0.0965074 22.8925 0.275735C22.4902 0.454963 22.1433 0.714614 21.852 1.05469L21.852 1.05469L21.8312 1.05469L21.8312 0.110294L20.2428 0.110294L20.2428 6.99678L21.8312 6.99678L21.8312 3.53631C21.8312 2.87454 21.9942 2.35983 22.3202 1.99219C22.6462 1.62454 23.0821 1.44072 23.6277 1.44072C23.8774 1.44072 24.0913 1.47289 24.2693 1.53722C24.4474 1.60156 24.6034 1.70611 24.7375 1.85087C24.8717 1.99563 24.9711 2.1921 25.0358 2.44026C25.1006 2.68842 25.1329 2.99173 25.1329 3.35018L25.1329 3.35018L25.1329 7.00368L26.7214 7.00368ZM31.0127 7.10708C31.956 7.10708 32.6913 6.76241 33.2185 6.07307L33.2185 6.07307L33.2393 6.07307L33.2393 6.99678L34.7584 6.99678L34.7584 0.110294L33.1699 0.110294L33.1699 0.9375L33.1422 0.9375C32.615 0.317096 31.9005 0.00689338 30.9988 0.00689338C30.5271 0.00689338 30.0855 0.0965074 29.674 0.275735C29.2624 0.454963 28.9086 0.700827 28.6127 1.01333C28.3167 1.32583 28.0832 1.70496 27.9121 2.15074C27.741 2.59651 27.6555 3.07445 27.6555 3.58456C27.6555 4.10846 27.741 4.59099 27.9121 5.03217C28.0832 5.47335 28.3167 5.84559 28.6127 6.1489C28.9086 6.45221 29.2636 6.68773 29.6774 6.85547C30.0913 7.02321 30.5364 7.10708 31.0127 7.10708ZM31.2624 5.67325C30.6751 5.67325 30.1965 5.47909 29.8266 5.09076C29.4566 4.70244 29.2717 4.20267 29.2717 3.59145C29.2717 2.94347 29.4624 2.42302 29.8439 2.0301C30.2254 1.63718 30.7006 1.44072 31.2693 1.44072C31.8335 1.44072 32.3017 1.64637 32.674 2.05767C33.0462 2.46898 33.2323 2.98024 33.2323 3.59145C33.2323 4.20267 33.0416 4.70244 32.6601 5.09076C32.2786 5.47909 31.8127 5.67325 31.2624 5.67325ZM39.2716 9.892C39.7757 9.892 40.2266 9.83341 40.6242 9.71622C41.0219 9.59904 41.356 9.43589 41.6265 9.22679C41.8971 9.01769 42.1213 8.76149 42.2994 8.45818C42.4774 8.15487 42.6057 7.82399 42.6844 7.46553C42.763 7.10708 42.8023 6.71415 42.8023 6.28677L42.8023 6.28677L42.8023 0.110294L41.2138 0.110294L41.2138 0.834099L41.1861 0.834099C40.8994 0.56296 40.5699 0.356158 40.1977 0.213695C39.8254 0.0712316 39.4381 0 39.0358 0C38.4023 0 37.8335 0.149357 37.3294 0.44807C36.8254 0.746783 36.4335 1.16154 36.1537 1.69233C35.874 2.22312 35.7341 2.81939 35.7341 3.48116C35.7341 4.15211 35.8809 4.74724 36.1745 5.26654C36.4682 5.78585 36.8716 6.18451 37.3849 6.46255C37.8982 6.74058 38.4763 6.8796 39.119 6.8796C39.9792 6.8796 40.6797 6.59927 41.2208 6.0386L41.2208 6.0386L41.2485 6.0386L41.2485 6.7693C41.2485 7.25643 41.0682 7.66085 40.7075 7.98254C40.3468 8.30423 39.8381 8.46507 39.1815 8.46507C38.7329 8.46507 38.3387 8.40993 37.9988 8.29963C37.6589 8.18934 37.267 8.017 36.8231 7.78263L36.8231 7.78263L36.4485 9.17509C36.837 9.40487 37.274 9.5818 37.7595 9.70588C38.245 9.82996 38.7491 9.892 39.2716 9.892ZM39.3271 5.42509C38.7537 5.42509 38.2809 5.24472 37.9086 4.88396C37.5364 4.52321 37.3503 4.03952 37.3503 3.4329C37.3503 2.84926 37.5329 2.37362 37.8982 2.00597C38.2635 1.63833 38.7398 1.4545 39.3271 1.4545C39.8867 1.4545 40.3526 1.63603 40.7248 1.99908C41.0971 2.36213 41.2832 2.83318 41.2832 3.41222C41.2832 3.99586 41.1017 4.47725 40.7387 4.85639C40.3757 5.23552 39.9052 5.42509 39.3271 5.42509ZM47.3433 7.10708C47.9907 7.10708 48.5606 6.98989 49.0531 6.75551C49.5456 6.52114 49.9491 6.20404 50.2635 5.80423L50.2635 5.80423L49.1537 4.85983C48.719 5.40211 48.1433 5.67325 47.4265 5.67325C46.9179 5.67325 46.4867 5.53309 46.1329 5.25276C45.7792 4.97243 45.5514 4.58869 45.4497 4.10156L45.4497 4.10156L50.4994 4.10156C50.5271 3.93612 50.541 3.72702 50.541 3.47426C50.541 2.8079 50.4046 2.21278 50.1317 1.68888C49.8589 1.16498 49.4659 0.753676 48.9526 0.454963C48.4393 0.15625 47.8474 0.00689338 47.1768 0.00689338C46.7005 0.00689338 46.2543 0.0930607 45.8381 0.265395C45.4219 0.43773 45.0635 0.677849 44.763 0.985754C44.4624 1.29366 44.2266 1.6682 44.0555 2.10938C43.8844 2.55055 43.7988 3.03079 43.7988 3.55009C43.7988 4.25322 43.9537 4.87707 44.2635 5.42165C44.5734 5.96622 44.9965 6.38327 45.5329 6.67279C46.0693 6.96232 46.6728 7.10708 47.3433 7.10708ZM48.9456 2.82629L45.4774 2.82629C45.5884 2.38511 45.8034 2.04389 46.1225 1.80262C46.4416 1.56135 46.8208 1.44072 47.2601 1.44072C47.704 1.44072 48.0705 1.5648 48.3595 1.81296C48.6485 2.06112 48.8439 2.3989 48.9456 2.82629L48.9456 2.82629Z" id="manage" fill="#FFFFFF" stroke="none" />
        </g>
        <g id="Group-5">
          <g id="Group-4">
            <path d="M2.34 1.19048C2.34 1.84796 1.81617 2.38095 1.17 2.38095C0.523827 2.38095 0 1.84796 0 1.19048C0 0.532994 0.523827 0 1.17 0C1.81617 0 2.34 0.532994 2.34 1.19048ZM6.552 1.19048C6.552 1.84796 6.02817 2.38095 5.382 2.38095C4.73583 2.38095 4.212 1.84796 4.212 1.19048C4.212 0.532994 4.73583 0 5.382 0C6.02817 0 6.552 0.532994 6.552 1.19048ZM2.34 5.47619C2.34 6.13367 1.81617 6.66667 1.17 6.66667C0.523827 6.66667 0 6.13367 0 5.47619C0 4.81871 0.523827 4.28571 1.17 4.28571C1.81617 4.28571 2.34 4.81871 2.34 5.47619Z" id="Combined-Shape" fill="#FFFFFF" fill-rule="evenodd" stroke="none" />
            <path d="M1.17 2.38095C1.81617 2.38095 2.34 1.84796 2.34 1.19048C2.34 0.532994 1.81617 0 1.17 0C0.523827 0 0 0.532994 0 1.19048C0 1.84796 0.523827 2.38095 1.17 2.38095Z" transform="translate(4.212 4.3333335)" id="Oval-Copy-3" fill="#FFFFFF" fill-opacity="0.5" fill-rule="evenodd" stroke="none" />
          </g>
        </g>
      </g>
    </g>
  </g>
</svg>