<?xml version="1.0" encoding="utf-8"?>
<svg width="89px" height="89px" viewBox="0 0 89 89" version="1.1" xmlns:xlink="http://www.w3.org/1999/xlink" xmlns="http://www.w3.org/2000/svg">
  <desc>Created with Lunacy</desc>
  <defs>
    <linearGradient x1="1" y1="0" x2="0" y2="1" id="gradient_1">
      <stop offset="0" stop-color="#FFFFFF" />
      <stop offset="1" stop-color="#FFFFFF" stop-opacity="0" />
    </linearGradient>
    <filter filterUnits="userSpaceOnUse" color-interpolation-filters="sRGB" id="filter_1">
      <feFlood flood-opacity="0" result="BackgroundImageFix" />
      <feBlend mode="normal" in="SourceGraphic" in2="BackgroundImageFix" result="shape" />
      <feColorMatrix in="SourceAlpha" type="matrix" values="0 0 0 0 0 0 0 0 0 0 0 0 0 0 0 0 0 0 127 0" result="hardAlpha" />
      <feOffset dx="0" dy="0" />
      <feGaussianBlur stdDeviation="17.5" />
      <feComposite in2="hardAlpha" operator="arithmetic" k2="-1" k3="1" />
      <feColorMatrix type="matrix" values="0 0 0 0 0 0 0 0 0 0 0 0 0 0 0 0 0 0 0.047058824 0" />
      <feBlend mode="normal" in2="shape" result="effect0_innerShadow" />
    </filter>
  </defs>
  <g id="Group-9" transform="translate(0.5 0.5)">
    <path d="M44 88C68.3005 88 88 68.3005 88 44C88 19.6995 68.3005 0 44 0C19.6995 0 0 19.6995 0 44C0 68.3005 19.6995 88 44 88Z" id="Oval" fill="#68A4A4" fill-rule="evenodd" stroke="none" filter="url(#filter_1)" />
    <path d="M24 48C37.2548 48 48 37.2548 48 24C48 10.7452 37.2548 0 24 0C10.7452 0 0 10.7452 0 24C0 37.2548 10.7452 48 24 48Z" transform="matrix(-1 0 0 1 69 20)" id="Oval" fill="url(#gradient_1)" fill-opacity="0.25" fill-rule="evenodd" stroke="none" />
    <path d="M1.38265 5.89L1.38265 2.54L3.06453 5.16L3.27089 5.16L4.95277 2.54L4.95277 5.89L6.33542 5.89L6.33542 0.1L4.95277 0.1L3.16771 2.82L1.38265 0.1L0 0.1L0 5.89L1.38265 5.89ZM17.0664 5.89L17.0664 3.94L19.2126 0.1L17.7371 0.1L16.3751 2.61L15.0234 0.1L13.5479 0.1L15.6941 3.94L15.6941 5.89L17.0664 5.89ZM27.8077 5.89L27.8077 3.88L30.0055 3.88L30.0055 5.89L31.3882 5.89L31.3882 0.1L30.0055 0.1L30.0055 2.66L27.8077 2.66L27.8077 0.1L26.4251 0.1L26.4251 5.89L27.8077 5.89ZM42.1192 6C43.8939 6 45.3075 4.65 45.3075 3C45.3075 1.34 43.8939 0 42.1192 0C40.3444 0 38.9308 1.34 38.9308 3C38.9308 4.65 40.3444 6 42.1192 6ZM42.1192 4.77C41.1389 4.77 40.3651 3.96 40.3651 3C40.3651 2.02 41.1389 1.23 42.1192 1.23C43.0994 1.23 43.8733 2.02 43.8733 3C43.8733 3.96 43.0994 4.77 42.1192 4.77ZM54.2328 5.89L54.2328 2.54L55.9147 5.16L56.1211 5.16L57.8029 2.54L57.8029 5.89L59.1856 5.89L59.1856 0.1L57.8029 0.1L56.0179 2.82L54.2328 0.1L52.8502 0.1L52.8502 5.89L54.2328 5.89ZM71 5.89L71 4.66L68.2141 4.66L68.2141 3.66L70.7833 3.66L70.7833 2.43L68.2141 2.43L68.2141 1.33L71 1.33L71 0.1L66.8314 0.1L66.8314 5.89L71 5.89Z" transform="translate(8 41)" id="MYHOME" fill="#FFFFFF" stroke="none" />
    <g id="MYHOME-2" transform="translate(9 41)" />
  </g>
</svg>