<?xml version="1.0" encoding="utf-8"?>
<svg width="1366px" height="157px" viewBox="0 0 1366 157" version="1.1" xmlns:xlink="http://www.w3.org/1999/xlink" xmlns="http://www.w3.org/2000/svg">
  <desc>Created with Lunacy</desc>
  <defs>
    <path d="M0 0L1366 0L1366 156L0 156L0 0Z" id="path_1" />
    <clipPath id="mask_1">
      <use xlink:href="#path_1" />
    </clipPath>
  </defs>
  <g id="Combined-Shape">
    <path d="M0 0L1366 0L1366 156L0 156L0 0Z" id="Mask" fill="#5CA5A5" fill-rule="evenodd" stroke="none" />
    <g clip-path="url(#mask_1)">
      <g id="Group-25" transform="translate(-141 -575.8242)">
        <path d="M621.513 38.5759L621.511 38.5745Q619.225 36.2883 616.829 34.1171Q614.433 31.9458 611.934 29.8947Q609.434 27.8436 606.837 25.9177Q604.24 23.9917 601.551 22.1954Q598.862 20.3992 596.089 18.7371Q593.316 17.0749 590.464 15.5508Q587.612 14.0267 584.689 12.6444Q581.766 11.2621 578.779 10.0248Q575.792 8.78754 572.747 7.69834Q569.703 6.60914 566.609 5.67062Q563.514 4.7321 560.378 3.94652Q557.241 3.16094 554.07 2.53019Q550.899 1.89945 547.7 1.42505Q544.502 0.95066 541.284 0.633761Q538.066 0.316862 534.837 0.158222Q531.607 -0.000418122 528.374 -0.000417858Q525.141 -0.000417593 521.911 0.158223Q518.682 0.316864 515.464 0.633763Q512.246 0.950663 509.048 1.42506Q505.849 1.89945 502.678 2.5302Q499.507 3.16095 496.37 3.94653Q493.234 4.73211 490.14 5.67063Q487.045 6.60915 484.001 7.69835Q480.957 8.78755 477.969 10.0248Q474.982 11.2621 472.059 12.6444Q469.136 14.0267 466.284 15.5508Q463.433 17.0749 460.659 18.7371Q457.886 20.3992 455.197 22.1955Q452.509 23.9917 449.911 25.9177Q447.314 27.8436 444.815 29.8947Q442.315 31.9458 439.919 34.1171Q437.523 36.2883 435.237 38.5745L38.5768 435.179Q37.4338 436.322 36.3192 437.492Q35.2046 438.663 34.1191 439.86Q33.0336 441.058 31.9778 442.281Q30.922 443.505 29.8966 444.754Q28.8712 446.004 27.8767 447.278Q26.8822 448.552 25.9193 449.85Q24.9564 451.148 24.0257 452.47Q23.095 453.791 22.1969 455.135Q21.2989 456.479 20.4341 457.844Q19.5693 459.21 18.7383 460.596Q17.9073 461.982 17.1106 463.389Q16.3139 464.795 15.5519 466.22Q14.7899 467.646 14.0632 469.089Q13.3364 470.533 12.6453 471.994Q11.9542 473.455 11.2991 474.933Q10.6441 476.411 10.0255 477.904Q9.40695 479.397 8.82521 480.905Q8.24347 482.413 7.69891 483.935Q7.15435 485.456 6.64731 486.991Q6.14027 488.526 5.67104 490.073Q5.20182 491.619 4.7707 493.177Q4.33958 494.735 3.94682 496.302Q3.55406 497.87 3.19989 499.447Q2.84573 501.024 2.53038 502.61Q2.21503 504.195 1.93869 505.787Q1.66234 507.38 1.42516 508.979Q1.18798 510.577 0.990112 512.181Q0.792243 513.786 0.633805 515.394Q0.475367 517.003 0.356455 518.615Q0.237543 520.226 0.158229 521.841Q0.0789142 523.455 0.0392448 525.071Q-0.000424454 526.687 -0.000424586 528.303Q-0.000424718 529.919 0.0392443 531.535Q0.0789133 533.151 0.158228 534.765Q0.237542 536.38 0.356454 537.991Q0.475365 539.603 0.633803 541.212Q0.792241 542.82 0.990109 544.425Q1.18798 546.029 1.42516 547.628Q1.66233 549.226 1.93868 550.819Q2.21503 552.411 2.53038 553.996Q2.84573 555.582 3.19989 557.159Q3.55405 558.736 3.94681 560.304Q4.33957 561.871 4.77069 563.429Q5.20181 564.987 5.67103 566.533Q6.14026 568.08 6.6473 569.615Q7.15434 571.15 7.6989 572.671Q8.24345 574.193 8.8252 575.701Q9.40694 577.209 10.0255 578.702Q10.6441 580.195 11.2991 581.673Q11.9542 583.151 12.6453 584.612Q13.3364 586.073 14.0632 587.516Q14.7899 588.96 15.5519 590.386Q16.3139 591.811 17.1106 593.217Q17.9073 594.624 18.7383 596.01Q19.5693 597.396 20.4341 598.762Q21.2989 600.127 22.1969 601.471Q23.0949 602.815 24.0257 604.136Q24.9564 605.457 25.9193 606.756Q26.8822 608.054 27.8767 609.328Q28.8711 610.602 29.8966 611.851Q30.922 613.101 31.9778 614.325Q33.0336 615.548 34.1191 616.746Q35.2046 617.943 36.3192 619.114Q37.4338 620.284 38.5767 621.427L38.5782 621.429Q40.8647 623.715 43.2606 625.886Q45.6566 628.057 48.1561 630.109Q50.6557 632.16 53.2529 634.086Q55.8501 636.012 58.5386 637.808Q61.2272 639.604 64.0006 641.266Q66.7741 642.928 69.6257 644.452Q72.4774 645.977 75.4004 647.359Q78.3234 648.741 81.3107 649.978Q84.298 651.216 87.3424 652.305Q90.3868 653.394 93.481 654.333Q96.5752 655.271 99.7117 656.057Q102.848 656.842 106.019 657.473Q109.191 658.104 112.389 658.578Q115.588 659.053 118.805 659.37Q122.023 659.686 125.253 659.845Q128.482 660.004 131.716 660.004Q134.949 660.004 138.178 659.845Q141.408 659.686 144.626 659.37Q147.844 659.053 151.042 658.578Q154.24 658.104 157.412 657.473Q160.583 656.842 163.719 656.057Q166.856 655.271 169.95 654.333Q173.044 653.394 176.089 652.305Q179.133 651.216 182.12 649.978Q185.108 648.741 188.031 647.359Q190.954 645.977 193.805 644.452Q196.657 642.928 199.43 641.266Q202.204 639.604 204.892 637.808Q207.581 636.012 210.178 634.086Q212.775 632.16 215.275 630.109Q217.775 628.057 220.17 625.886Q222.566 623.715 224.853 621.429L403.063 443.244Q402.129 444.347 401.22 445.47Q400.312 446.594 399.428 447.737Q398.543 448.88 397.685 450.042Q396.826 451.204 395.993 452.385Q395.16 453.565 394.353 454.764Q393.546 455.963 392.766 457.179Q391.985 458.395 391.232 459.628Q390.478 460.861 389.752 462.11Q389.026 463.359 388.327 464.624Q387.628 465.888 386.957 467.168Q386.287 468.448 385.644 469.742Q385.001 471.036 384.387 472.345Q383.773 473.653 383.188 474.974Q382.603 476.295 382.047 477.629Q381.491 478.962 380.964 480.308Q380.438 481.653 379.941 483.01Q379.444 484.367 378.977 485.734Q378.51 487.102 378.073 488.479Q377.636 489.856 377.229 491.243Q376.822 492.63 376.446 494.025Q376.07 495.42 375.725 496.823Q375.379 498.226 375.065 499.636Q374.75 501.047 374.467 502.463Q374.183 503.88 373.931 505.303Q373.678 506.726 373.457 508.154Q373.236 509.582 373.047 511.014Q372.857 512.447 372.699 513.883Q372.54 515.319 372.414 516.759Q372.287 518.198 372.192 519.64Q372.097 521.082 372.034 522.525Q371.97 523.969 371.939 525.413Q371.907 526.858 371.907 528.303Q371.907 529.919 371.946 531.535Q371.986 533.151 372.065 534.765Q372.145 536.38 372.264 537.991Q372.383 539.603 372.541 541.212Q372.699 542.82 372.897 544.425Q373.095 546.029 373.332 547.628Q373.57 549.226 373.846 550.819Q374.122 552.411 374.438 553.996Q374.753 555.582 375.107 557.159Q375.461 558.736 375.854 560.304Q376.247 561.871 376.678 563.429Q377.109 564.987 377.578 566.533Q378.048 568.08 378.555 569.615Q379.062 571.15 379.606 572.671Q380.151 574.193 380.732 575.701Q381.314 577.209 381.933 578.702Q382.551 580.195 383.206 581.673Q383.861 583.151 384.553 584.612Q385.244 586.073 385.97 587.516Q386.697 588.96 387.459 590.386Q388.221 591.811 389.018 593.217Q389.815 594.624 390.646 596.01Q391.477 597.396 392.341 598.762Q393.206 600.127 394.104 601.471Q395.002 602.815 395.933 604.136Q396.864 605.457 397.827 606.756Q398.789 608.054 399.784 609.328Q400.778 610.602 401.804 611.851Q402.829 613.101 403.885 614.325Q404.941 615.548 406.026 616.746Q407.112 617.943 408.226 619.114Q409.341 620.284 410.484 621.427L410.485 621.429Q412.772 623.715 415.168 625.886Q417.564 628.057 420.063 630.109Q422.563 632.16 425.16 634.086Q427.757 636.012 430.446 637.808Q433.134 639.604 435.908 641.266Q438.681 642.928 441.533 644.452Q444.385 645.977 447.308 647.359Q450.231 648.741 453.218 649.978Q456.205 651.216 459.25 652.305Q462.294 653.394 465.388 654.333Q468.482 655.271 471.619 656.057Q474.755 656.842 477.927 657.473Q481.098 658.104 484.296 658.578Q487.495 659.053 490.713 659.37Q493.93 659.686 497.16 659.845Q500.389 660.004 503.623 660.004Q506.856 660.004 510.086 659.845Q513.315 659.686 516.533 659.37Q519.751 659.053 522.949 658.578Q526.148 658.104 529.319 657.473Q532.49 656.842 535.627 656.057Q538.763 655.271 541.857 654.333Q544.951 653.394 547.996 652.305Q551.04 651.216 554.028 649.978Q557.015 648.741 559.938 647.359Q562.861 645.977 565.713 644.452Q568.564 642.928 571.338 641.266Q574.111 639.604 576.8 637.808Q579.488 636.012 582.085 634.086Q584.683 632.16 587.182 630.109Q589.682 628.057 592.078 625.886Q594.474 623.715 596.76 621.429L993.42 224.824Q994.563 223.682 995.678 222.511Q996.792 221.341 997.878 220.143Q998.963 218.946 1000.02 217.722Q1001.07 216.498 1002.1 215.249Q1003.13 213.999 1004.12 212.725Q1005.11 211.451 1006.08 210.153Q1007.04 208.855 1007.97 207.533Q1008.9 206.212 1009.8 204.868Q1010.7 203.524 1011.56 202.159Q1012.43 200.793 1013.26 199.407Q1014.09 198.021 1014.89 196.614Q1015.68 195.208 1016.44 193.783Q1017.21 192.357 1017.93 190.914Q1018.66 189.47 1019.35 188.009Q1020.04 186.548 1020.7 185.07Q1021.35 183.593 1021.97 182.099Q1022.59 180.606 1023.17 179.098Q1023.75 177.59 1024.3 176.068Q1024.84 174.547 1025.35 173.012Q1025.86 171.477 1026.33 169.931Q1026.79 168.384 1027.23 166.826Q1027.66 165.269 1028.05 163.701Q1028.44 162.133 1028.8 160.556Q1029.15 158.979 1029.47 157.394Q1029.78 155.808 1030.06 154.216Q1030.33 152.623 1030.57 151.025Q1030.81 149.426 1031.01 147.822Q1031.2 146.218 1031.36 144.609Q1031.52 143.001 1031.64 141.389Q1031.76 139.777 1031.84 138.162Q1031.92 136.548 1031.96 134.932Q1032 133.317 1032 131.7Q1032 130.084 1031.96 128.468Q1031.92 126.852 1031.84 125.238Q1031.76 123.624 1031.64 122.012Q1031.52 120.4 1031.36 118.791Q1031.2 117.183 1031.01 115.579Q1030.81 113.975 1030.57 112.376Q1030.33 110.777 1030.06 109.185Q1029.78 107.592 1029.47 106.007Q1029.15 104.422 1028.8 102.845Q1028.44 101.268 1028.05 99.6998Q1027.66 98.1319 1027.23 96.5742Q1026.79 95.0165 1026.33 93.4698Q1025.86 91.9231 1025.35 90.3884Q1024.84 88.8537 1024.3 87.3319Q1023.75 85.8102 1023.17 84.3022Q1022.59 82.7942 1021.97 81.301Q1021.35 79.8078 1020.7 78.3302Q1020.04 76.8526 1019.35 75.3915Q1018.66 73.9304 1017.93 72.4867Q1017.21 71.0431 1016.44 69.6177Q1015.68 68.1923 1014.89 66.786Q1014.09 65.3797 1013.26 63.9934Q1012.43 62.6071 1011.56 61.2416Q1010.7 59.8762 1009.8 58.5323Q1008.9 57.1885 1007.97 55.8671Q1007.04 54.5457 1006.08 53.2475Q1005.11 51.9493 1004.12 50.6752Q1003.13 49.4011 1002.1 48.1517Q1001.07 46.9024 1000.02 45.6786Q998.963 44.4548 997.878 43.2573Q996.792 42.0598 995.678 40.8892Q994.563 39.7187 993.42 38.5759L993.419 38.5745Q991.132 36.2883 988.736 34.1171Q986.34 31.9458 983.841 29.8947Q981.341 27.8436 978.744 25.9177Q976.147 23.9917 973.458 22.1954Q970.77 20.3992 967.996 18.7371Q965.223 17.0749 962.371 15.5508Q959.519 14.0267 956.596 12.6444Q953.673 11.2621 950.686 10.0248Q947.699 8.78754 944.654 7.69834Q941.61 6.60914 938.516 5.67062Q935.422 4.7321 932.285 3.94652Q929.149 3.16094 925.977 2.53019Q922.806 1.89945 919.608 1.42505Q916.409 0.95066 913.192 0.633761Q909.974 0.316862 906.744 0.158222Q903.515 -0.000418122 900.281 -0.000417858Q897.048 -0.000417593 893.818 0.158223Q890.589 0.316864 887.371 0.633763Q884.153 0.950663 880.955 1.42506Q877.757 1.89945 874.585 2.5302Q871.414 3.16095 868.278 3.94653Q865.141 4.73211 862.047 5.67063Q858.953 6.60915 855.908 7.69835Q852.864 8.78755 849.877 10.0248Q846.889 11.2621 843.966 12.6444Q841.043 14.0267 838.192 15.5508Q835.34 17.0749 832.566 18.7371Q829.793 20.3992 827.104 22.1955Q824.416 23.9917 821.819 25.9177Q819.222 27.8436 816.722 29.8947Q814.222 31.9458 811.826 34.1171Q809.43 36.2883 807.144 38.5745L628.934 216.759Q629.867 215.656 630.776 214.533Q631.685 213.41 632.569 212.267Q633.453 211.124 634.312 209.962Q635.171 208.799 636.004 207.619Q636.837 206.438 637.644 205.239Q638.451 204.041 639.231 202.825Q640.011 201.609 640.765 200.376Q641.518 199.143 642.245 197.894Q642.971 196.644 643.67 195.38Q644.369 194.115 645.039 192.835Q645.71 191.555 646.353 190.261Q646.995 188.967 647.609 187.659Q648.223 186.351 648.809 185.03Q649.394 183.708 649.95 182.375Q650.506 181.041 651.032 179.695Q651.559 178.35 652.056 176.993Q652.553 175.636 653.02 174.269Q653.487 172.901 653.924 171.524Q654.361 170.147 654.768 168.76Q655.174 167.374 655.55 165.979Q655.927 164.583 656.272 163.18Q656.617 161.777 656.932 160.367Q657.246 158.957 657.53 157.54Q657.814 156.123 658.066 154.7Q658.318 153.277 658.539 151.849Q658.76 150.421 658.95 148.989Q659.14 147.557 659.298 146.12Q659.456 144.684 659.583 143.245Q659.71 141.805 659.805 140.363Q659.9 138.922 659.963 137.478Q660.027 136.034 660.058 134.59Q660.09 133.145 660.09 131.7Q660.09 130.084 660.05 128.468Q660.011 126.852 659.931 125.238Q659.852 123.624 659.733 122.012Q659.614 120.4 659.456 118.791Q659.297 117.183 659.1 115.579Q658.902 113.975 658.664 112.376Q658.427 110.777 658.151 109.185Q657.875 107.592 657.559 106.007Q657.244 104.422 656.89 102.845Q656.536 101.268 656.143 99.6997Q655.75 98.1319 655.319 96.5742Q654.888 95.0164 654.419 93.4698Q653.949 91.9231 653.442 90.3884Q652.935 88.8537 652.391 87.3319Q651.846 85.8101 651.264 84.3022Q650.683 82.7942 650.064 81.301Q649.445 79.8078 648.79 78.3301Q648.135 76.8526 647.444 75.3915Q646.753 73.9304 646.026 72.4867Q645.3 71.043 644.538 69.6176Q643.776 68.1922 642.979 66.786Q642.182 65.3797 641.351 63.9934Q640.52 62.6071 639.656 61.2416Q638.791 59.8762 637.893 58.5323Q636.995 57.1885 636.064 55.8671Q635.133 54.5457 634.17 53.2475Q633.207 51.9493 632.213 50.6752Q631.218 49.4011 630.193 48.1517Q629.168 46.9024 628.112 45.6786Q627.056 44.4548 625.97 43.2573Q624.885 42.0598 623.77 40.8892Q622.656 39.7187 621.513 38.5759Z" transform="matrix(-1 0 0 -1 1604.9968 1177.8274)" id="Combined-Shape" fill="#63BABA" fill-rule="evenodd" stroke="none" />
        <path d="M1066.2 38.5759L1066.2 38.5745Q1063.92 36.2883 1061.52 34.1171Q1059.13 31.9458 1056.63 29.8947Q1054.13 27.8436 1051.53 25.9177Q1048.93 23.9917 1046.24 22.1954Q1043.55 20.3992 1040.78 18.7371Q1038.01 17.0749 1035.16 15.5508Q1032.3 14.0267 1029.38 12.6444Q1026.46 11.2621 1023.47 10.0248Q1020.48 8.78754 1017.44 7.69834Q1014.39 6.60914 1011.3 5.67062Q1008.21 4.7321 1005.07 3.94652Q1001.93 3.16094 998.762 2.53019Q995.591 1.89945 992.393 1.42505Q989.194 0.95066 985.976 0.633761Q982.758 0.316862 979.529 0.158222Q976.299 -0.000418122 973.066 -0.000417858Q969.833 -0.000417593 966.603 0.158223Q963.374 0.316864 960.156 0.633763Q956.938 0.950663 953.74 1.42506Q950.541 1.89945 947.37 2.5302Q944.199 3.16095 941.062 3.94653Q937.926 4.73211 934.832 5.67063Q931.738 6.60915 928.693 7.69835Q925.649 8.78755 922.661 10.0248Q919.674 11.2621 916.751 12.6444Q913.828 14.0267 910.976 15.5508Q908.125 17.0749 905.351 18.7371Q902.578 20.3992 899.889 22.1955Q897.201 23.9917 894.603 25.9177Q892.006 27.8436 889.507 29.8947Q887.007 31.9458 884.611 34.1171Q882.215 36.2883 879.929 38.5745L483.269 435.179Q482.126 436.322 481.011 437.492Q479.897 438.663 478.811 439.86Q477.726 441.058 476.67 442.281Q475.614 443.505 474.589 444.754Q473.563 446.004 472.569 447.278Q471.574 448.552 470.611 449.85Q469.648 451.148 468.718 452.47Q467.787 453.791 466.889 455.135Q465.991 456.479 465.126 457.844Q464.261 459.21 463.43 460.596Q462.599 461.982 461.803 463.389Q461.006 464.795 460.244 466.22Q459.482 467.646 458.755 469.089Q458.028 470.533 457.337 471.994Q456.646 473.455 455.991 474.933Q455.336 476.411 454.718 477.904Q454.099 479.397 453.517 480.905Q452.935 482.413 452.391 483.935Q451.846 485.456 451.339 486.991Q450.832 488.526 450.363 490.073Q449.894 491.619 449.463 493.177Q449.032 494.735 448.639 496.302Q448.246 497.87 447.892 499.447Q447.538 501.024 447.222 502.61Q446.907 504.195 446.631 505.787Q446.354 507.38 446.117 508.979Q445.88 510.577 445.682 512.181Q445.484 513.786 445.326 515.394Q445.167 517.003 445.048 518.615Q444.93 520.226 444.85 521.841Q444.771 523.455 444.731 525.071Q444.692 526.687 444.692 528.303Q444.692 529.919 444.731 531.535Q444.771 533.151 444.85 534.765Q444.93 536.38 445.048 537.991Q445.167 539.603 445.326 541.212Q445.484 542.82 445.682 544.425Q445.88 546.029 446.117 547.628Q446.354 549.226 446.631 550.819Q446.907 552.411 447.222 553.996Q447.538 555.582 447.892 557.159Q448.246 558.736 448.639 560.304Q449.032 561.871 449.463 563.429Q449.894 564.987 450.363 566.533Q450.832 568.08 451.339 569.615Q451.846 571.15 452.391 572.671Q452.935 574.193 453.517 575.701Q454.099 577.209 454.718 578.702Q455.336 580.195 455.991 581.673Q456.646 583.151 457.337 584.612Q458.028 586.073 458.755 587.516Q459.482 588.96 460.244 590.386Q461.006 591.811 461.803 593.217Q462.599 594.624 463.43 596.01Q464.261 597.396 465.126 598.762Q465.991 600.127 466.889 601.471Q467.787 602.815 468.718 604.136Q469.648 605.457 470.611 606.756Q471.574 608.054 472.569 609.328Q473.563 610.602 474.589 611.851Q475.614 613.101 476.67 614.325Q477.726 615.548 478.811 616.746Q479.897 617.943 481.011 619.114Q482.126 620.284 483.269 621.427L483.27 621.429Q485.557 623.715 487.953 625.886Q490.349 628.057 492.848 630.109Q495.348 632.16 497.945 634.086Q500.542 636.012 503.231 637.808Q505.919 639.604 508.693 641.266Q511.466 642.928 514.318 644.452Q517.169 645.977 520.092 647.359Q523.015 648.741 526.003 649.978Q528.99 651.216 532.034 652.305Q535.079 653.394 538.173 654.333Q541.267 655.271 544.404 656.057Q547.54 656.842 550.711 657.473Q553.883 658.104 557.081 658.578Q560.279 659.053 563.497 659.37Q566.715 659.686 569.945 659.845Q573.174 660.004 576.408 660.004Q579.641 660.004 582.87 659.845Q586.1 659.686 589.318 659.37Q592.536 659.053 595.734 658.578Q598.932 658.104 602.104 657.473Q605.275 656.842 608.411 656.057Q611.548 655.271 614.642 654.333Q617.736 653.394 620.781 652.305Q623.825 651.216 626.812 649.978Q629.8 648.741 632.723 647.359Q635.646 645.977 638.497 644.452Q641.349 642.928 644.122 641.266Q646.896 639.604 649.584 637.808Q652.273 636.012 654.87 634.086Q657.467 632.16 659.967 630.109Q662.466 628.057 664.862 625.886Q667.258 623.715 669.545 621.429L1066.2 224.824Q1067.35 223.682 1068.46 222.511Q1069.58 221.341 1070.66 220.143Q1071.75 218.946 1072.8 217.722Q1073.86 216.498 1074.89 215.249Q1075.91 213.999 1076.9 212.725Q1077.9 211.451 1078.86 210.153Q1079.83 208.855 1080.76 207.533Q1081.69 206.212 1082.58 204.868Q1083.48 203.524 1084.35 202.159Q1085.21 200.793 1086.04 199.407Q1086.87 198.021 1087.67 196.614Q1088.47 195.208 1089.23 193.783Q1089.99 192.357 1090.72 190.914Q1091.45 189.47 1092.14 188.009Q1092.83 186.548 1093.48 185.07Q1094.14 183.593 1094.76 182.099Q1095.37 180.606 1095.96 179.098Q1096.54 177.59 1097.08 176.068Q1097.63 174.547 1098.13 173.012Q1098.64 171.477 1099.11 169.931Q1099.58 168.384 1100.01 166.826Q1100.44 165.268 1100.83 163.701Q1101.23 162.133 1101.58 160.556Q1101.94 158.979 1102.25 157.394Q1102.57 155.808 1102.84 154.216Q1103.12 152.623 1103.36 151.025Q1103.59 149.426 1103.79 147.822Q1103.99 146.218 1104.15 144.609Q1104.31 143.001 1104.43 141.389Q1104.54 139.777 1104.62 138.162Q1104.7 136.548 1104.74 134.932Q1104.78 133.316 1104.78 131.7Q1104.78 130.084 1104.74 128.468Q1104.7 126.852 1104.62 125.238Q1104.54 123.624 1104.43 122.012Q1104.31 120.4 1104.15 118.791Q1103.99 117.183 1103.79 115.579Q1103.59 113.975 1103.36 112.376Q1103.12 110.777 1102.84 109.185Q1102.57 107.592 1102.25 106.007Q1101.94 104.422 1101.58 102.845Q1101.23 101.268 1100.83 99.6997Q1100.44 98.1319 1100.01 96.5742Q1099.58 95.0164 1099.11 93.4698Q1098.64 91.9231 1098.13 90.3884Q1097.63 88.8537 1097.08 87.3319Q1096.54 85.8101 1095.96 84.3022Q1095.37 82.7942 1094.76 81.301Q1094.14 79.8078 1093.48 78.3301Q1092.83 76.8526 1092.14 75.3915Q1091.45 73.9304 1090.72 72.4867Q1089.99 71.043 1089.23 69.6176Q1088.47 68.1922 1087.67 66.786Q1086.87 65.3797 1086.04 63.9934Q1085.21 62.6071 1084.35 61.2416Q1083.48 59.8762 1082.58 58.5323Q1081.69 57.1885 1080.76 55.8671Q1079.83 54.5457 1078.86 53.2475Q1077.9 51.9493 1076.9 50.6752Q1075.91 49.4011 1074.89 48.1517Q1073.86 46.9024 1072.8 45.6786Q1071.75 44.4548 1070.66 43.2573Q1069.58 42.0598 1068.46 40.8892Q1067.35 39.7187 1066.2 38.5759ZM621.513 110.4L621.511 110.399Q619.225 108.113 616.829 105.941Q614.433 103.77 611.934 101.719Q609.434 99.6678 606.837 97.7419Q604.24 95.8159 601.551 94.0197Q598.862 92.2234 596.089 90.5613Q593.316 88.8991 590.464 87.375Q587.612 85.8509 584.689 84.4686Q581.766 83.0863 578.779 81.849Q575.792 80.6118 572.747 79.5226Q569.703 78.4333 566.609 77.4948Q563.514 76.5563 560.378 75.7707Q557.241 74.9852 554.07 74.3544Q550.899 73.7236 547.7 73.2493Q544.502 72.7749 541.284 72.458Q538.066 72.1411 534.837 71.9824Q531.607 71.8238 528.374 71.8238Q525.141 71.8238 521.911 71.9824Q518.682 72.1411 515.464 72.458Q512.246 72.7749 509.048 73.2493Q505.849 73.7236 502.678 74.3544Q499.507 74.9852 496.37 75.7707Q493.234 76.5563 490.14 77.4948Q487.045 78.4334 484.001 79.5226Q480.957 80.6118 477.969 81.849Q474.982 83.0863 472.059 84.4686Q469.136 85.8509 466.284 87.375Q463.433 88.8991 460.659 90.5613Q457.886 92.2234 455.197 94.0197Q452.509 95.8159 449.911 97.7419Q447.314 99.6678 444.815 101.719Q442.315 103.77 439.919 105.941Q437.523 108.113 435.237 110.399L38.5768 507.003Q37.4338 508.146 36.3192 509.316Q35.2046 510.487 34.1191 511.684Q33.0336 512.882 31.9778 514.106Q30.922 515.329 29.8966 516.579Q28.8712 517.828 27.8767 519.102Q26.8822 520.376 25.9193 521.674Q24.9564 522.973 24.0257 524.294Q23.095 525.615 22.1969 526.959Q21.2989 528.303 20.4341 529.669Q19.5693 531.034 18.7383 532.42Q17.9073 533.807 17.1106 535.213Q16.3139 536.619 15.5519 538.045Q14.7899 539.47 14.0632 540.914Q13.3364 542.357 12.6453 543.818Q11.9542 545.28 11.2992 546.757Q10.6441 548.235 10.0255 549.728Q9.40696 551.221 8.82522 552.729Q8.24347 554.237 7.69892 555.759Q7.15436 557.281 6.64732 558.815Q6.14027 560.35 5.67105 561.897Q5.20183 563.443 4.7707 565.001Q4.33958 566.559 3.94682 568.127Q3.55406 569.695 3.1999 571.271Q2.84574 572.849 2.53039 574.434Q2.21504 576.019 1.93869 577.611Q1.66234 579.204 1.42516 580.803Q1.18798 582.402 0.990115 584.006Q0.792246 585.61 0.633808 587.218Q0.47537 588.827 0.356458 590.439Q0.237545 592.051 0.15823 593.665Q0.0789153 595.279 0.0392456 596.895Q-0.000424056 598.511 -0.000424586 600.127Q-0.000425116 601.743 0.0392435 603.359Q0.0789122 604.975 0.158226 606.589Q0.23754 608.204 0.356451 609.815Q0.475363 611.427 0.6338 613.036Q0.792237 614.644 0.990105 616.249Q1.18797 617.853 1.42515 619.451Q1.66233 621.05 1.93868 622.643Q2.21502 624.235 2.53037 625.82Q2.84572 627.406 3.19988 628.983Q3.55404 630.56 3.9468 632.128Q4.33956 633.695 4.77068 635.253Q5.20181 636.811 5.67103 638.357Q6.14025 639.904 6.64729 641.439Q7.15434 642.974 7.69889 644.495Q8.24345 646.017 8.82519 647.525Q9.40693 649.033 10.0255 650.526Q10.6441 652.02 11.2991 653.497Q11.9542 654.975 12.6453 656.436Q13.3364 657.897 14.0631 659.341Q14.7899 660.784 15.5519 662.21Q16.3139 663.635 17.1106 665.041Q17.9073 666.448 18.7383 667.834Q19.5693 669.22 20.4341 670.586Q21.2989 671.951 22.1969 673.295Q23.0949 674.639 24.0257 675.96Q24.9564 677.282 25.9193 678.58Q26.8822 679.878 27.8767 681.152Q28.8711 682.426 29.8966 683.676Q30.922 684.925 31.9778 686.149Q33.0336 687.372 34.1191 688.57Q35.2046 689.768 36.3192 690.938Q37.4338 692.109 38.5767 693.251L38.5782 693.253Q40.8647 695.539 43.2606 697.71Q45.6566 699.882 48.1561 701.933Q50.6557 703.984 53.2529 705.91Q55.8501 707.836 58.5386 709.632Q61.2272 711.428 64.0006 713.09Q66.7741 714.753 69.6257 716.277Q72.4774 717.801 75.4004 719.183Q78.3234 720.565 81.3107 721.803Q84.298 723.04 87.3424 724.129Q90.3868 725.218 93.481 726.157Q96.5752 727.095 99.7117 727.881Q102.848 728.666 106.019 729.297Q109.191 729.928 112.389 730.402Q115.588 730.877 118.805 731.194Q122.023 731.51 125.253 731.669Q128.482 731.828 131.716 731.828Q134.949 731.828 138.178 731.669Q141.408 731.51 144.626 731.194Q147.844 730.877 151.042 730.402Q154.24 729.928 157.412 729.297Q160.583 728.666 163.719 727.881Q166.856 727.095 169.95 726.157Q173.044 725.218 176.089 724.129Q179.133 723.04 182.12 721.803Q185.108 720.565 188.031 719.183Q190.954 717.801 193.805 716.277Q196.657 714.753 199.43 713.09Q202.204 711.428 204.892 709.632Q207.581 707.836 210.178 705.91Q212.775 703.984 215.275 701.933Q217.775 699.882 220.17 697.71Q222.566 695.539 224.853 693.253L621.513 296.649Q622.656 295.506 623.77 294.335Q624.885 293.165 625.971 291.967Q627.056 290.77 628.112 289.546Q629.168 288.322 630.193 287.073Q631.219 285.823 632.213 284.549Q633.207 283.275 634.17 281.977Q635.133 280.679 636.064 279.358Q636.995 278.036 637.893 276.692Q638.791 275.348 639.656 273.983Q640.52 272.617 641.351 271.231Q642.182 269.845 642.979 268.439Q643.776 267.032 644.538 265.607Q645.3 264.182 646.026 262.738Q646.753 261.294 647.444 259.833Q648.135 258.372 648.79 256.894Q649.445 255.417 650.064 253.924Q650.683 252.43 651.264 250.922Q651.846 249.414 652.391 247.893Q652.935 246.371 653.442 244.836Q653.949 243.301 654.419 241.755Q654.888 240.208 655.319 238.65Q655.75 237.093 656.143 235.525Q656.536 233.957 656.89 232.38Q657.244 230.803 657.559 229.218Q657.875 227.633 658.151 226.04Q658.427 224.448 658.664 222.849Q658.902 221.25 659.1 219.646Q659.297 218.042 659.456 216.433Q659.614 214.825 659.733 213.213Q659.852 211.601 659.931 209.987Q660.011 208.372 660.05 206.756Q660.09 205.141 660.09 203.524Q660.09 201.908 660.05 200.292Q660.011 198.677 659.931 197.062Q659.852 195.448 659.733 193.836Q659.614 192.224 659.456 190.616Q659.297 189.007 659.1 187.403Q658.902 185.799 658.664 184.2Q658.427 182.601 658.151 181.009Q657.875 179.416 657.559 177.831Q657.244 176.246 656.89 174.669Q656.536 173.092 656.143 171.524Q655.75 169.956 655.319 168.398Q654.888 166.841 654.419 165.294Q653.949 163.747 653.442 162.213Q652.935 160.678 652.391 159.156Q651.846 157.634 651.264 156.126Q650.683 154.618 650.064 153.125Q649.445 151.632 648.79 150.154Q648.135 148.677 647.444 147.216Q646.753 145.755 646.026 144.311Q645.3 142.867 644.538 141.442Q643.776 140.016 642.979 138.61Q642.182 137.204 641.351 135.818Q640.52 134.431 639.656 133.066Q638.791 131.7 637.893 130.357Q636.995 129.013 636.064 127.691Q635.133 126.37 634.17 125.072Q633.207 123.774 632.213 122.499Q631.218 121.225 630.193 119.976Q629.168 118.727 628.112 117.503Q627.056 116.279 625.97 115.081Q624.885 113.884 623.77 112.713Q622.656 111.543 621.513 110.4Z" transform="matrix(-1 0 0 -1 1104.7816 731.8274)" id="Combined-Shape-Copy" fill="#63BABA" fill-rule="evenodd" stroke="none" />
      </g>
    </g>
  </g>
</svg>